<svg xmlns="http://www.w3.org/2000/svg" height="24" viewBox="0 -960 960 960" width="24"><path d="M365-455h46v-82h37q19.975 0 33.487-13.5Q495-564 495-583v-35q0-19.975-13.513-33.487Q467.975-665 448-665h-83v210Zm46-128v-35h37v35h-37Zm122 128h83q19 0 33-13.513 14-13.512 14-33.487v-116q0-19.975-14-33.487Q635-665 616-665h-83v210Zm46-47v-116h37v116h-37Zm119 47h46v-82h32v-46h-32v-35h32v-47h-78v210ZM329-210q-43.725 0-74.863-31.137Q223-272.275 223-316v-488q0-43.725 31.137-74.862Q285.275-910 329-910h488q43.725 0 74.862 31.138Q923-847.725 923-804v488q0 43.725-31.138 74.863Q860.725-210 817-210H329Zm0-106h488v-488H329v488ZM143-24q-43.725 0-74.862-31.138Q37-86.275 37-130v-594h106v594h594v106H143Zm186-780v488-488Z"/></svg>